<?xml version="1.0" standalone="no"?>
<!DOCTYPE svg PUBLIC "-//W3C//DTD SVG 20010904//EN"
 "http://www.w3.org/TR/2001/REC-SVG-20010904/DTD/svg10.dtd">
<svg version="1.0" xmlns="http://www.w3.org/2000/svg"
 width="16.000000pt" height="16.000000pt" viewBox="0 0 16.000000 16.000000"
 preserveAspectRatio="xMidYMid meet">
<metadata>
Created by potrace 1.11, written by Peter Selinger 2001-2013
</metadata>
<g transform="translate(0.000000,16.000000) scale(0.001563,-0.001563)"
fill="#000000" stroke="none">
<path d="M8829 9375 c-3 -2 -378 -7 -834 -10 -1340 -10 -1457 -12 -1525 -24
-360 -61 -657 -277 -827 -601 -67 -128 -105 -269 -128 -480 -3 -30 -10 -89
-15 -130 -5 -41 -12 -102 -15 -135 -3 -33 -8 -73 -10 -90 -2 -16 -9 -75 -15
-130 -6 -55 -13 -111 -15 -125 -2 -14 -7 -54 -10 -90 -3 -36 -8 -76 -10 -90
-2 -14 -7 -54 -10 -90 -4 -36 -8 -72 -10 -80 -2 -8 -6 -49 -9 -90 -4 -41 -9
-86 -11 -100 -6 -36 -13 -95 -20 -167 -3 -34 -7 -70 -9 -80 -2 -10 -7 -48 -10
-83 -4 -36 -9 -81 -11 -100 -3 -19 -7 -57 -10 -85 -3 -27 -8 -66 -10 -85 -3
-19 -7 -60 -10 -90 -3 -30 -7 -66 -10 -80 -2 -14 -7 -58 -10 -98 -4 -41 -8
-82 -10 -92 -2 -10 -6 -47 -10 -82 -3 -35 -8 -74 -10 -88 -2 -14 -6 -49 -10
-78 l-7 -53 -1287 5 c-1738 7 -2110 7 -2151 1 -272 -41 -471 -138 -656 -320
-132 -130 -227 -283 -282 -455 -19 -59 -25 -83 -36 -145 -6 -35 -17 -120 -21
-161 -3 -39 -13 -143 -20 -200 -2 -17 -6 -62 -10 -100 -3 -38 -8 -80 -10 -94
-2 -14 -7 -59 -10 -100 -4 -41 -8 -86 -10 -100 -2 -14 -7 -59 -10 -100 -4 -41
-9 -84 -11 -94 -2 -10 -6 -51 -9 -90 -3 -39 -8 -87 -10 -106 -5 -40 -14 -124
-20 -190 -5 -47 -11 -112 -20 -202 -3 -29 -8 -64 -10 -78 -2 -14 -7 -59 -10
-100 -3 -41 -8 -91 -10 -110 -8 -70 -19 -174 -30 -290 -3 -36 -8 -81 -10 -100
-4 -38 -11 -103 -20 -190 -3 -30 -8 -75 -11 -100 -9 -92 -14 -136 -19 -190 -3
-30 -7 -75 -10 -100 -3 -25 -7 -67 -10 -95 -3 -27 -9 -84 -14 -125 -14 -110
-7 -314 13 -385 22 -80 45 -141 74 -195 132 -243 366 -409 632 -449 94 -15
3161 -29 3300 -16 25 2 88 15 141 29 374 95 665 365 788 732 35 105 43 142 55
259 3 28 8 73 11 100 3 28 7 75 10 105 3 30 7 71 10 90 2 19 7 60 10 90 3 30
7 75 10 100 3 25 7 70 10 100 3 30 7 73 10 95 3 22 7 66 10 98 2 32 7 73 9 90
3 18 8 64 12 102 3 39 7 84 9 100 2 17 6 59 10 95 9 88 15 146 20 200 3 25 8
72 11 105 3 33 7 76 9 95 2 19 6 60 9 90 3 30 8 71 11 90 2 19 7 64 10 100 3
36 8 81 10 100 2 19 11 105 20 190 8 85 17 174 20 196 3 23 7 68 10 100 3 33
7 77 10 99 3 22 7 67 10 100 3 33 8 76 10 95 2 19 9 85 15 145 6 61 13 128 16
150 2 22 6 60 8 85 5 56 18 164 20 167 1 1 386 4 856 8 1230 9 1761 15 1790
19 277 45 478 144 658 325 189 190 303 431 328 696 3 39 8 78 9 87 2 9 6 48
10 85 3 37 8 77 10 89 3 11 7 51 11 88 3 37 7 75 9 84 1 10 6 51 10 92 4 41 9
84 11 95 2 11 7 48 9 81 3 34 7 71 10 82 2 12 7 52 10 89 4 37 9 82 11 98 2
17 7 55 9 85 3 30 8 66 10 80 3 14 7 54 11 90 3 36 7 76 10 90 2 14 7 54 10
88 3 35 7 71 9 80 1 10 6 46 9 82 4 36 9 81 11 100 2 19 7 60 10 90 4 30 8 66
10 80 2 14 6 52 10 85 3 33 12 107 19 165 34 265 6 453 -92 630 -85 152 -242
297 -401 367 -84 37 -223 70 -309 72 -42 1 -79 4 -82 6 -4 3 -9 3 -11 0z m148
-717 c25 -17 49 -44 63 -73 22 -46 23 -89 5 -225 -2 -14 -6 -52 -10 -85 -4
-33 -8 -71 -10 -85 -2 -14 -6 -54 -10 -90 -3 -36 -8 -76 -10 -90 -2 -14 -7
-50 -10 -80 -7 -64 -14 -121 -20 -170 -3 -19 -7 -60 -10 -90 -9 -93 -17 -164
-21 -185 -2 -10 -6 -49 -10 -85 -3 -36 -7 -76 -9 -90 -2 -14 -11 -88 -20 -165
-21 -193 -25 -226 -29 -260 -2 -16 -7 -59 -11 -95 -3 -36 -8 -76 -10 -90 -4
-27 -11 -90 -20 -180 -4 -30 -8 -66 -10 -80 -2 -14 -7 -54 -10 -89 -11 -111
-14 -130 -34 -185 -52 -150 -190 -264 -348 -291 -18 -3 -320 -7 -670 -10 -351
-3 -907 -7 -1237 -10 l-598 -5 6 72 c4 40 9 87 11 103 8 62 17 131 20 160 1
17 6 59 9 95 4 36 9 76 11 90 2 14 7 54 11 90 3 36 7 72 9 80 2 8 6 49 10 90
4 41 9 83 10 92 2 9 6 45 10 80 3 35 10 97 15 138 5 41 12 100 15 130 3 30 8
71 10 90 3 19 7 58 10 85 3 28 7 66 10 85 2 19 7 60 10 90 3 30 10 89 15 130
5 41 12 100 15 130 3 30 8 71 10 90 2 19 7 58 10 85 3 28 7 64 9 80 3 17 7 57
10 90 4 33 8 76 11 95 2 19 7 58 10 85 11 98 16 126 31 167 51 146 172 254
322 289 30 7 269 13 642 15 327 3 595 6 596 7 1 1 261 2 576 2 l574 0 41 -27z
m-3977 -3492 c104 0 164 -5 163 -11 0 -5 -4 -48 -8 -95 -4 -47 -8 -92 -10
-100 -2 -8 -6 -49 -10 -90 -11 -126 -13 -143 -20 -205 -12 -110 -20 -194 -30
-290 -3 -33 -8 -78 -10 -100 -19 -178 -26 -238 -30 -290 -4 -33 -8 -76 -10
-95 -2 -19 -6 -64 -10 -100 -3 -36 -7 -76 -10 -90 -2 -14 -6 -56 -10 -95 -3
-38 -8 -88 -10 -110 -7 -62 -25 -234 -30 -287 -8 -79 -16 -151 -20 -188 -2
-19 -7 -66 -10 -105 -4 -38 -8 -81 -10 -95 -2 -14 -6 -54 -10 -90 -7 -75 -13
-138 -19 -195 -7 -55 -15 -140 -21 -200 -6 -54 -12 -118 -20 -192 -3 -27 -7
-75 -10 -108 -17 -182 -47 -259 -141 -353 -67 -67 -131 -102 -224 -121 -40 -8
-462 -10 -1590 -6 -844 3 -1548 8 -1565 11 -41 7 -96 47 -120 86 -25 42 -25
173 0 348 2 14 6 57 10 95 3 39 8 81 10 95 2 14 6 57 10 95 3 39 8 81 10 95 2
14 6 57 10 95 3 39 8 88 10 110 9 81 15 131 20 190 3 33 7 76 10 95 2 19 7 66
11 105 3 38 8 78 10 88 2 10 6 54 9 98 3 43 8 87 10 97 2 11 6 55 10 98 4 43
9 86 10 94 2 8 6 53 10 100 4 47 8 92 10 100 2 8 6 49 10 90 4 41 9 86 10 100
2 14 6 61 10 105 4 44 8 87 10 95 2 8 6 49 10 90 10 110 13 136 24 235 6 50
13 122 16 160 3 39 7 84 10 100 2 17 6 62 10 100 13 144 58 247 146 333 48 47
146 100 200 109 19 2 36 7 38 9 3 3 2607 -5 3131 -10z"/>
</g>
</svg>
