<?xml version="1.0" encoding="utf-8"?>
<!-- Generator: Adobe Illustrator 16.0.0, SVG Export Plug-In . SVG Version: 6.00 Build 0)  -->
<!DOCTYPE svg PUBLIC "-//W3C//DTD SVG 1.1//EN" "http://www.w3.org/Graphics/SVG/1.1/DTD/svg11.dtd">
<svg version="1.1" id="Layer_1" xmlns="http://www.w3.org/2000/svg" xmlns:xlink="http://www.w3.org/1999/xlink" x="0px" y="0px"
	 width="528.234375px" height="87.5708008px" viewBox="0 0 528.234375 87.5708008"
	 enable-background="new 0 0 528.234375 87.5708008" xml:space="preserve">
<g>
	<defs>
		<path id="SVGID_1_" d="M18.4140625,72.253418c-0.5849609-0.0019531-0.953125-0.3154297-1.1210938-0.5029297
			c-0.1679688-0.1855469-0.440918-0.5859375-0.3798828-1.1679688l2.5629883-24.8974609
			c0.1938477-1.8901367,1.7709961-3.3134766,3.6699219-3.3134766h0.0151367l26.6679688,0.1000977l-0.0048828,0.0361328
			l0.034668-0.0009766l-2.730957,26.527832c-0.1938477,1.8896484-1.7700195,3.3125-3.6689453,3.3125h-0.0141602
			L18.4140625,72.253418z M58.402832,16.8139648c0.2109375-1.8510742,1.7753906-3.2583008,3.6391602-3.2719727l18.4609375-0.1381836
			h0.012207c0.5859375,0,0.9570312,0.3129883,1.125,0.5009766c0.1699219,0.1889648,0.4448242,0.5961914,0.3789062,1.184082
			l-2.097168,18.3427734c-0.2119141,1.8510742-1.7758789,3.2573242-3.6386719,3.2709961l-20.1713867,0.1513672L58.402832,16.8139648
			z M80.4599609,7.7988281L62,7.9360352c-4.6928711,0.034668-8.6337891,3.5776367-9.1660156,8.2407227l-2.3662109,20.6918945
			l-27.2866211-0.1020508h-0.0351562c-4.7832031,0-8.7558594,3.5820312-9.2460938,8.3452148l-2.5639648,24.8984375
			c-0.2050781,1.9951172,0.4472656,3.9951172,1.7880859,5.4873047c1.3408203,1.4941406,3.2607422,2.3535156,5.2680664,2.3613281
			l25.0297852,0.0927734h0.0380859c4.7832031,0,8.7539062-3.5810547,9.2451172-8.34375l2.7939453-27.1430664l20.8261719-0.15625
			c4.6928711-0.0356445,8.6328125-3.5776367,9.1660156-8.2397461l2.0966797-18.3422852
			c0.230957-2.0239258-0.4179688-4.0546875-1.7797852-5.5688477c-1.3413086-1.4907227-3.2441406-2.3598633-5.2529297-2.3598633
			C80.5229492,7.7978516,80.4921875,7.7978516,80.4599609,7.7988281"/>
	</defs>
	<clipPath id="SVGID_2_">
		<use xlink:href="#SVGID_1_"  overflow="visible"/>
	</clipPath>
	<linearGradient id="SVGID_3_" gradientUnits="userSpaceOnUse" x1="12.765625" y1="79.5864258" x2="86.1866455" y2="6.1654053">
		<stop  offset="0" style="stop-color:#ED1C24"/>
		<stop  offset="1" style="stop-color:#F0B24B"/>
	</linearGradient>
	<polygon clip-path="url(#SVGID_2_)" fill="url(#SVGID_3_)" points="122.8959961,42.875 49.4750977,116.2954102 -23.9458008,42.875 
		49.4750977,-30.5463867 	"/>
</g>
<g>
	<defs>
		<rect id="SVGID_4_" width="528.234375" height="87.5708008"/>
	</defs>
	<clipPath id="SVGID_5_">
		<use xlink:href="#SVGID_4_"  overflow="visible"/>
	</clipPath>
	<path clip-path="url(#SVGID_5_)" fill="#FFFFFF" d="M66.765625,76.9907227l2.449707-24.7451172
		c0.0180664-0.1865234,0.1762695-0.3300781,0.3642578-0.3300781h16.5620117c6.2089844,0,9.2797852,1.7353516,8.7416992,7.1679688
		c-0.2128906,2.1464844-1.6625977,3.8818359-3.3198242,4.4755859c2.8862305,0.3642578,4.8701172,2.921875,4.5449219,6.2099609
		c-0.5380859,5.4326172-3.8139648,7.625-11.3017578,7.625H67.1293945
		C66.9135742,77.394043,66.7446289,77.206543,66.765625,76.9907227 M74.0185547,56.2983398l-0.5742188,5.7998047h11.6889648
		c2.6479492,0,4.0673828-0.9589844,4.262207-2.9228516c0.1889648-1.9179688-1.0400391-2.8769531-3.6879883-2.8769531H74.0185547z
		 M73.0063477,66.5268555l-0.6420898,6.4824219h12.8764648c3.3330078,0,5.1079102-0.8671875,5.3427734-3.2402344
		c0.2402344-2.4199219-1.230957-3.2421875-4.7011719-3.2421875H73.0063477z"/>
	<path clip-path="url(#SVGID_5_)" fill="#FFFFFF" d="M134.6918945,77.199707l-2.6323242-4.9199219h-15.8886719l-3.6381836,4.9638672
		c-0.0688477,0.09375-0.1791992,0.1494141-0.2958984,0.1494141h-4.8779297c-0.3022461,0-0.4741211-0.3457031-0.2919922-0.5859375
		l18.7709961-24.8984375c0.1586914-0.2119141,0.4829102-0.1894531,0.6118164,0.0419922l13.8417969,24.8984375
		c0.1362305,0.2431641-0.0410156,0.5439453-0.3198242,0.5439453h-4.9570312
		C134.8798828,77.3930664,134.7558594,77.3188477,134.6918945,77.199707 M125.3535156,59.769043l-5.9589844,8.0820312h10.2729492
		L125.3535156,59.769043z"/>
	<path clip-path="url(#SVGID_5_)" fill="#FFFFFF" d="M182.2192383,75.1713867
		c-0.0126953,0.1318359-0.09375,0.2480469-0.2138672,0.3027344c-3.4589844,1.5839844-7.6318359,2.3759766-12.6069336,2.3759766
		c-6.2060547,0-10.8701172-1.4033203-14.1020508-4.2695312c-2.5361328-2.2470703-3.7202148-5.6875-3.3442383-9.0546875
		c0.434082-3.8916016,2.434082-7.0292969,5.9990234-9.4140625c3.6181641-2.4199219,8.2602539-3.6523438,13.9223633-3.6523438
		c5.0366211,0,9.0830078,0.7841797,12.2226562,2.3496094c0.1381836,0.0693359,0.2163086,0.2167969,0.2011719,0.3710938
		l-0.3720703,3.7519531c-0.0239258,0.2509766-0.2856445,0.3955078-0.5136719,0.2880859
		c-3.4521484-1.6289062-7.3222656-2.4238281-11.6484375-2.4238281c-4.2919922,0-7.659668,0.8222656-10.1557617,2.5107422
		c-2.4912109,1.6455078-3.8408203,3.7451172-4.0981445,6.3476562c-0.5107422,5.1591797,3.8759766,8.8125,12.597168,8.8125
		c4.4628906,0,8.4287109-0.7822266,11.9697266-2.3056641c0.2563477-0.1103516,0.53125,0.0878906,0.5043945,0.3642578
		L182.2192383,75.1713867z"/>
	<path clip-path="url(#SVGID_5_)" fill="#FFFFFF" d="M228.2290039,52.5717773l-12.3061523,9.5263672l10.7529297,14.7128906
		c0.1772461,0.2412109,0.0053711,0.5830078-0.2949219,0.5830078h-5.3037109c-0.1162109,0-0.2250977-0.0566406-0.2939453-0.1494141
		l-8.8291016-11.9511719l-7.7558594,5.9365234l-0.578125,5.8330078c-0.0180664,0.1875-0.1762695,0.3310547-0.3642578,0.3310547
		h-4.46875c-0.2172852,0-0.3862305-0.1875-0.3642578-0.4033203l2.4492188-24.7451172
		c0.019043-0.1865234,0.1757812-0.3300781,0.3637695-0.3300781h4.4702148c0.2158203,0,0.3847656,0.1875,0.3637695,0.4033203
		l-1.3027344,13.1582031l17.7270508-13.4863281c0.0639648-0.0478516,0.1420898-0.0751953,0.2216797-0.0751953h5.2890625
		C228.3540039,51.9155273,228.5048828,52.3579102,228.2290039,52.5717773"/>
	<path clip-path="url(#SVGID_5_)" fill="#FFFFFF" d="M240.6953125,76.9907227l2.449707-24.7451172
		c0.0180664-0.1865234,0.1762695-0.3300781,0.3642578-0.3300781h16.5620117c6.2089844,0,9.2802734,1.7353516,8.7421875,7.1679688
		c-0.2128906,2.1464844-1.6630859,3.8818359-3.3203125,4.4755859c2.8857422,0.3642578,4.8701172,2.921875,4.5449219,6.2099609
		c-0.5380859,5.4326172-3.8134766,7.625-11.3017578,7.625H241.059082
		C240.8432617,77.394043,240.6743164,77.206543,240.6953125,76.9907227 M247.9482422,56.2983398l-0.5742188,5.7998047h11.6889648
		c2.6479492,0,4.0673828-0.9589844,4.262207-2.9228516c0.1889648-1.9179688-1.0400391-2.8769531-3.6879883-2.8769531H247.9482422z
		 M246.9360352,66.5268555l-0.6420898,6.4824219h12.8764648c3.3325195,0,5.1079102-0.8671875,5.3432617-3.2402344
		c0.2392578-2.4199219-1.2314453-3.2421875-4.7016602-3.2421875H246.9360352z"/>
	<path clip-path="url(#SVGID_5_)" fill="#FFFFFF" d="M288.3535156,74.2426758
		c-3.1396484-2.4199219-4.5126953-5.6152344-4.1191406-9.5878906c0.3886719-3.9267578,2.3945312-7.1240234,6.0126953-9.5429688
		c3.6181641-2.4199219,8.1689453-3.6523438,13.6943359-3.6523438c5.5244141,0,9.8320312,1.2324219,12.9707031,3.6523438
		c3.1855469,2.4189453,4.5625,5.5703125,4.1689453,9.5429688c-0.3925781,3.9726562-2.3984375,7.1679688-5.9716797,9.5878906
		c-3.5722656,2.4208984-8.1640625,3.6074219-13.7802734,3.6074219
		C295.8037109,77.8500977,291.4931641,76.6635742,288.3535156,74.2426758 M311.3125,71.0922852
		c2.578125-1.5976562,3.9775391-3.7431641,4.2441406-6.4375s-0.7539062-4.8408203-3.0205078-6.3925781
		c-2.2607422-1.5976562-5.2441406-2.3740234-9.0332031-2.3740234c-3.7900391,0-6.9257812,0.7763672-9.5039062,2.3740234
		c-2.5742188,1.5517578-3.9726562,3.6982422-4.2402344,6.3925781c-0.2666016,2.6943359,0.7080078,4.8398438,2.9707031,6.4375
		c2.2617188,1.5976562,5.2441406,2.375,9.0341797,2.375C305.5517578,73.4672852,308.734375,72.6899414,311.3125,71.0922852"/>
	<path clip-path="url(#SVGID_5_)" fill="#FFFFFF" d="M365.2724609,77.4711914l-23.1962891-16.9716797l-1.640625,16.5644531
		c-0.0175781,0.1865234-0.1757812,0.3291016-0.3642578,0.3291016h-4.46875c-0.2167969,0-0.3857422-0.1865234-0.3642578-0.4013672
		l2.4638672-24.8857422c0.0273438-0.2841797,0.3544922-0.4287109,0.5839844-0.2578125l23.1572266,17.3261719l1.6767578-16.9277344
		c0.0175781-0.1884766,0.1757812-0.3310547,0.3632812-0.3310547h4.4697266c0.2167969,0,0.3857422,0.1865234,0.3642578,0.4033203
		l-2.4638672,24.8935547C365.8261719,77.4946289,365.5019531,77.6381836,365.2724609,77.4711914"/>
	<polygon clip-path="url(#SVGID_5_)" fill="#FFFFFF" points="440.0966797,72.1264648 425.6074219,72.1264648 
		427.1308594,56.7260742 429.5322266,56.7260742 428.2070312,70.1108398 440.2949219,70.1108398 	"/>
	<path clip-path="url(#SVGID_5_)" fill="#FFFFFF" d="M463.9462891,72.1254883l-2.0791016-3.8085938h-10.2675781
		l-2.8330078,3.8085938h-2.6767578l11.8183594-15.6757812l8.7421875,15.6757812H463.9462891z M457.5224609,60.340332
		l-4.4238281,5.9345703h7.6455078L457.5224609,60.340332z"/>
	<path clip-path="url(#SVGID_5_)" fill="#FFFFFF" d="M474.5761719,72.1264648l1.5234375-15.4003906h10.1845703
		c3.5605469,0,5.5625,0.9648438,5.2539062,4.0839844c-0.1445312,1.4638672-1.1679688,2.5957031-2.4150391,2.9257812
		c1.9677734,0.1933594,3.390625,1.7109375,3.1728516,3.9189453c-0.3164062,3.2021484-2.5410156,4.4716797-6.6523438,4.4716797
		H474.5761719z M478.3017578,58.7416992l-0.4316406,4.359375h7.8105469c2.0703125,0,3.1650391-0.7460938,3.3125-2.2353516
		c0.0703125-1.8222656-1.2216797-2.1523438-2.9082031-2.1240234H478.3017578z M477.6708984,65.1166992l-0.4970703,5.0224609
		h8.6660156c2.2910156,0,3.7314453-0.6064453,3.9189453-2.5117188c0.1894531-1.9042969-1.0751953-2.5107422-3.3935547-2.5107422
		H477.6708984z"/>
	<path clip-path="url(#SVGID_5_)" fill="#FFFFFF" d="M516.6201172,59.2368164
		c-1.5986328-0.5791016-3.9140625-0.8828125-6.9501953-0.8828125c-3.8642578,0-5.8730469,0.7724609-6.0224609,2.2910156
		c-0.4296875,4.3330078,13.9648438,0,13.2626953,7.0927734c-0.3085938,3.1191406-3.2773438,4.6650391-8.9072266,4.6650391
		c-3.2285156,0-5.9589844-0.3046875-8.1318359-0.9394531l0.2832031-2.0146484
		c2.1669922,0.6904297,4.8662109,1.0224609,8.0400391,1.0224609c4.1113281,0,6.2421875-0.8837891,6.4140625-2.6230469
		c0.4677734-4.7197266-13.9433594-0.2216797-13.2685547-7.0380859c0.2871094-2.8984375,3.1367188-4.3603516,8.5458984-4.3603516
		c2.9257812,0,5.2695312,0.3037109,7.0048828,0.8828125L516.6201172,59.2368164z"/>
	<path clip-path="url(#SVGID_5_)" fill="#FFFFFF" d="M385.0273438,52.2456055l-0.3564453,3.6054688
		c-0.0214844,0.2158203,0.1474609,0.4023438,0.3652344,0.4023438h4.8457031h7.6474609h12.5664062
		c0.1894531,0,0.3457031-0.1425781,0.3652344-0.3300781l0.3564453-3.6054688
		c0.0214844-0.2148438-0.1474609-0.4023438-0.3642578-0.4023438h-25.0615234
		C385.2041016,51.9155273,385.046875,52.059082,385.0273438,52.2456055"/>
	<path clip-path="url(#SVGID_5_)" fill="#FFFFFF" d="M394.4306641,73.0102539h-6.2080078h-4.9179688
		c-0.1894531,0-0.3457031,0.1425781-0.3652344,0.3300781l-0.3613281,3.6503906
		c-0.0214844,0.2148438,0.1484375,0.4023438,0.3642578,0.4023438h25.0615234c0.1875,0,0.3457031-0.1425781,0.3632812-0.3300781
		l0.3623047-3.6513672c0.0205078-0.2148438-0.1484375-0.4013672-0.3652344-0.4013672H394.4306641z"/>
	<path clip-path="url(#SVGID_5_)" fill="#FFFFFF" d="M388.8691406,66.480957h6.2080078h8.4072266
		c0.1875,0,0.3457031-0.1425781,0.3642578-0.3300781l0.3613281-3.6513672
		c0.0214844-0.2148438-0.1474609-0.4013672-0.3652344-0.4013672h-6.8935547h-7.6484375h-4.9189453
		c-0.1875,0-0.3457031,0.1425781-0.3632812,0.3300781l-0.3623047,3.6503906
		c-0.0214844,0.2148438,0.1484375,0.4023438,0.3652344,0.4023438H388.8691406z"/>
</g>
</svg>
